:SAMPLES-PER-SECOND 30
:FULLY-SPECIFIED
:DEGREES
343
root  -2.79259 40.8676 0.38379 -3.24301 -69.7151 3.42958
RightUpLeg  7.14127 -3.78227 -1.92181
RightLeg  -3.88658 -37.6263 3.5867
RightFoot  -2.1241 -0.375854 4.47951
RightToes  -3.13006e-008 1.75238e-005 3.56266e-009
Spine  -8.32369 -5.96753 -13.977
Spine1  15.6879 -7.41115 8.6292
HEad  -17.9657 -7.49371 2.89811
LeftShoulder1  3.24515 -6.20534 -27.3398
LeftArm  -34.4901 -28.851 -47.9117
LeftForeArm  33.8711 -77.8033 -74.5594
LeftHand  -0.0512126 1.23736 1.25656
RightShoulder  2.50392 4.60911 24.774
RightArm  -19.9793 -45.2671 43.6098
RightForeArm  83.1949 79.5604 90.5661
RightHand  0.187985 2.91271 2.41398
LeftUpLeg  -1.24074 -0.197818 1.3177
LeftLeg  1.42418 -6.07119 -0.394799
LeftFoot  -0.304569 0.331446 -3.41261
LeftToes  4.76866e-008 1.46233e-008 1.30548e-009
344
root  -2.81687 40.8462 0.28597 -3.45291 -67.1497 3.85823
RightUpLeg  7.07719 -4.07675 -1.97175
RightLeg  -3.62035 -39.7936 3.62169
RightFoot  -2.41936 -0.364057 4.45115
RightToes  -3.13006e-008 1.75238e-005 3.56266e-009
Spine  -8.82385 -4.34474 -11.8489
Spine1  15.8814 -5.15689 6.53828
HEad  -18.4023 -5.80077 2.63292
LeftShoulder1  3.06516 -5.79079 -26.885
LeftArm  -37.0021 -28.7487 -47.9409
LeftForeArm  34.5671 -77.8445 -75.3604
LeftHand  -0.0514218 1.84802 1.35291
RightShoulder  2.72665 5.17773 25.3554
RightArm  -17.7264 -44.2862 40.4599
RightForeArm  80.2437 79.5688 87.199
RightHand  0.227598 3.13452 2.86688
LeftUpLeg  -1.78441 -0.707434 0.95301
LeftLeg  1.4399 -7.94687 -0.266082
LeftFoot  -0.0512653 0.345131 -3.48888
LeftToes  4.76866e-008 1.46233e-008 1.30548e-009
345
root  -2.82209 40.8279 0.206229 -3.93835 -64.9216 4.2383
RightUpLeg  7.27074 -4.50931 -2.16573
RightLeg  -3.18111 -41.4454 3.57801
RightFoot  -2.75344 -0.354221 4.46558
RightToes  -3.13006e-008 1.75238e-005 3.56266e-009
Spine  -8.49633 -2.41635 -10.0698
Spine1  15.633 -2.88879 5.31091
HEad  -18.1558 -5.0653 2.40538
LeftShoulder1  3.09342 -5.7378 -27.3931
LeftArm  -38.9428 -28.0214 -47.1236
LeftForeArm  36.2588 -77.9327 -77.3036
LeftHand  -0.0819629 1.84306 2.42657
RightShoulder  2.77792 5.44111 24.98
RightArm  -15.4572 -43.3615 38.1147
RightForeArm  79.6753 79.5646 86.5701
RightHand  0.144953 3.35009 1.69851
LeftUpLeg  -1.9072 -1.30019 0.509474
LeftLeg  1.39501 -9.40614 -0.00466891
LeftFoot  0.170951 0.370163 -3.68252
LeftToes  4.76866e-008 1.46233e-008 1.30548e-009
346
root  -2.80226 40.8077 0.13037 -4.80658 -63.4586 5.00728
RightUpLeg  7.11498 -4.83055 -2.45548
RightLeg  -2.05304 -42.5556 2.77691
RightFoot  -3.17081 -0.358905 4.71913
RightToes  -3.13006e-008 1.75238e-005 3.56266e-009
Spine  -7.41261 -0.366635 -7.25103
Spine1  14.5769 -0.120399 2.49877
HEad  -17.6596 -5.09947 2.53095
LeftShoulder1  2.96239 -5.42444 -27.0934
LeftArm  -40.1831 -26.6718 -46.9253
LeftForeArm  39.1995 -78.055 -81.0116
LeftHand  -0.094706 2.32556 3.01387
RightShoulder  2.83846 5.67064 24.8547
RightArm  -12.7975 -42.6864 36.0917
RightForeArm  79.0653 79.5447 86.3141
RightHand  -0.00798015 3.63875 -0.368775
LeftUpLeg  -1.94208 -1.77849 0.0256819
LeftLeg  1.37528 -10.1654 0.05353
LeftFoot  0.347229 0.403865 -3.96695
LeftToes  4.76866e-008 1.46233e-008 1.30548e-009
347
root  -2.79434 40.7907 0.0591028 -5.39218 -62.0663 5.27684
RightUpLeg  7.30759 -5.09309 -2.58905
RightLeg  -1.23301 -43.5432 2.2549
RightFoot  -3.49193 -0.361302 4.9147
RightToes  -3.13006e-008 1.75238e-005 3.56266e-009
Spine  -6.20076 1.58988 -4.28237
Spine1  13.7463 2.55717 -0.487743
HEad  -17.8021 -4.8263 3.39021
LeftShoulder1  2.94698 -5.47172 -26.7319
LeftArm  -40.8494 -25.494 -46.896
LeftForeArm  42.8969 -78.1538 -84.2423
LeftHand  -0.169869 1.78241 5.32219
RightShoulder  2.82701 5.61713 24.9154
RightArm  -11.466 -42.5624 35.1992
RightForeArm  81.0311 79.5611 88.3205
RightHand  -0.043282 4.41167 -0.791073
LeftUpLeg  -1.84097 -2.00121 -0.21417
LeftLeg  1.56365 -11.0881 0.0472849
LeftFoot  0.325172 0.438639 -4.31282
LeftToes  4.76866e-008 1.46233e-008 1.30548e-009
348
root  -2.79098 40.775 -0.00536614 -5.51793 -60.7889 5.29433
RightUpLeg  7.49329 -5.19585 -2.55086
RightLeg  -1.13149 -44.6827 2.21839
RightFoot  -3.63467 -0.357164 4.93075
RightToes  -3.13006e-008 1.75238e-005 3.56266e-009
Spine  -5.46309 2.88006 -2.06877
Spine1  13.376 4.33966 -2.55587
HEad  -17.19 -4.49484 3.36022
LeftShoulder1  2.75946 -4.92653 -26.6254
LeftArm  -41.141 -24.0593 -46.4231
LeftForeArm  46.7485 -78.2027 -88.2987
LeftHand  -0.13209 2.38684 4.66374
RightShoulder  2.92937 5.95563 24.8843
RightArm  -10.656 -41.7045 35.1357
RightForeArm  79.0344 79.54 86.4363
RightHand  -0.11505 4.5787 -1.63458
LeftUpLeg  -2.01401 -2.17154 -0.359409
LeftLeg  1.7883 -12.0854 0.047413
LeftFoot  0.375613 0.443917 -4.34857
LeftToes  4.76866e-008 1.46233e-008 1.30548e-009
349
root  -2.78329 40.7683 -0.0524889 -5.48015 -59.8948 5.38429
RightUpLeg  7.44432 -5.32506 -2.59345
RightLeg  -1.16892 -45.387 2.33504
RightFoot  -3.71006 -0.352065 4.88516
RightToes  -3.13006e-008 1.75238e-005 3.56266e-009
Spine  -5.01554 3.92524 0.716332
Spine1  13.1215 6.12095 -5.59921
HEad  -16.8598 -4.06242 3.936
LeftShoulder1  2.60946 -4.50156 -26.4815
LeftArm  -41.3017 -22.7772 -45.9112
LeftForeArm  51.3353 -78.1884 -92.8809
LeftHand  -0.0875244 2.74524 3.34049
RightShoulder  2.9624 5.91048 25.4058
RightArm  -10.5934 -40.5628 35.9558
RightForeArm  78.4862 79.5613 84.9937
RightHand  -0.128664 4.00048 -1.8559
LeftUpLeg  -2.27359 -2.21567 -0.403136
LeftLeg  1.77602 -12.8386 -0.0616345
LeftFoot  0.491674 0.468366 -4.54764
LeftToes  4.76866e-008 1.46233e-008 1.30548e-009
350
root  -2.79829 40.7635 -0.106369 -5.57413 -58.8856 5.61865
RightUpLeg  7.47163 -5.33384 -2.58625
RightLeg  -1.34178 -46.3843 2.37539
RightFoot  -3.69588 -0.351366 4.89807
RightToes  -3.13006e-008 1.75238e-005 3.56266e-009
Spine  -4.63085 4.46884 1.6754
Spine1  12.6524 6.90276 -6.61562
HEad  -16.108 -3.18335 3.3676
LeftShoulder1  2.51294 -4.18146 -26.5864
LeftArm  -41.2432 -20.9569 -45.8176
LeftForeArm  59.3332 -78.0232 -100.501
LeftHand  -0.126636 1.83854 3.79706
RightShoulder  3.02875 6.0678 25.591
RightArm  -10.6324 -39.5125 37.2706
RightForeArm  77.8803 79.5745 83.4872
RightHand  -0.0769036 3.80119 -1.23969
LeftUpLeg  -2.41836 -2.35352 -0.543612
LeftLeg  1.56955 -13.6215 -0.0744723
LeftFoot  0.673343 0.514703 -4.92928
LeftToes  4.76866e-008 1.46233e-008 1.30548e-009
351
root  -2.82513 40.7587 -0.133062 -5.53409 -57.7252 5.71889
RightUpLeg  7.58325 -5.42196 -2.6039
RightLeg  -1.6514 -47.4452 2.63151
RightFoot  -3.69245 -0.351557 4.916
RightToes  -3.13006e-008 1.75238e-005 3.56266e-009
Spine  -5.00443 4.60955 2.06406
Spine1  13.0726 7.12138 -6.83954
HEad  -15.0697 -2.56816 2.25105
LeftShoulder1  2.50278 -4.04841 -27.036
LeftArm  -41.1272 -19.4926 -45.7578
LeftForeArm  66.3611 -77.7423 -106.682
LeftHand  -0.197922 0.267501 4.50655
RightShoulder  3.00548 6.02379 25.4786
RightArm  -10.4945 -38.1578 39.0245
RightForeArm  77.0189 79.5915 80.867
RightHand  0.0438515 4.19194 0.258427
LeftUpLeg  -2.57925 -2.53739 -0.711042
LeftLeg  1.41577 -14.5465 -0.0187263
LeftFoot  0.817249 0.56239 -5.32574
LeftToes  4.76866e-008 1.46233e-008 1.30548e-009
352
root  -2.83938 40.76 -0.171379 -5.47899 -56.9282 5.75534
RightUpLeg  7.65137 -5.45173 -2.5711
RightLeg  -1.93727 -48.2412 2.888
RightFoot  -3.70421 -0.346446 4.84384
RightToes  -3.13006e-008 1.75238e-005 3.56266e-009
Spine  -5.57104 4.4143 2.58272
Spine1  13.6599 7.15464 -7.67026
HEad  -13.4475 -1.60838 1.50742
LeftShoulder1  2.39582 -3.79602 -26.7048
LeftArm  -41.3394 -18.4446 -46.1698
LeftForeArm  71.1744 -77.3807 -111.567
LeftHand  -0.113388 0.84213 2.78494
RightShoulder  3.25581 6.57209 26.2921
RightArm  -10.1776 -36.9527 40.0875
RightForeArm  76.597 79.6027 78.7137
RightHand  0.0843551 4.07801 0.760859
LeftUpLeg  -2.73462 -2.49003 -0.711615
LeftLeg  1.33671 -15.3447 -0.0962784
LeftFoot  0.959293 0.604774 -5.66488
LeftToes  4.76866e-008 1.46233e-008 1.30548e-009
